<svg xmlns="http://www.w3.org/2000/svg" width="24.375" height="24.375" viewBox="0 0 24.375 24.375">
  <path id="Icon_awesome-arrow-alt-circle-right" data-name="Icon awesome-arrow-alt-circle-right" d="M12.75.563A12.188,12.188,0,1,1,.563,12.75,12.185,12.185,0,0,1,12.75.563Zm-5.7,14.35h5.7V18.4a.59.59,0,0,0,1.007.418l5.617-5.647a.584.584,0,0,0,0-.831L13.757,6.686A.59.59,0,0,0,12.75,7.1v3.484h-5.7a.591.591,0,0,0-.59.59v3.145A.591.591,0,0,0,7.049,14.912Z" transform="translate(-0.563 -0.563)" fill="#9b9b9b"/>
</svg>
