<svg xmlns="http://www.w3.org/2000/svg" width="11.09" height="11.09" viewBox="0 0 11.09 11.09">
  <path id="Icon_awesome-check-circle" data-name="Icon awesome-check-circle" d="M11.652,6.107A5.545,5.545,0,1,1,6.107.563,5.545,5.545,0,0,1,11.652,6.107ZM5.466,9.043,9.58,4.929a.358.358,0,0,0,0-.506l-.506-.506a.358.358,0,0,0-.506,0L5.213,7.273,3.647,5.706a.358.358,0,0,0-.506,0l-.506.506a.358.358,0,0,0,0,.506L4.96,9.043a.358.358,0,0,0,.506,0Z" transform="translate(-0.563 -0.563)" fill="#9b9b9b"/>
</svg>
