<svg xmlns="http://www.w3.org/2000/svg" width="192" height="43" viewBox="0 0 192 43">
  <g id="Group_39" data-name="Group 39" transform="translate(-134 -103)">
    <text id="PH-OUTDOOR" transform="translate(181 131)" font-size="21" font-family="Avenir-Black, Avenir" font-weight="800"><tspan x="0" y="0">PH-OUTDOOR</tspan></text>
    <g id="logo_lille" data-name="logo lille" transform="translate(134 103)">
      <g id="Logo_m._farve1" data-name="Logo m. farve1" transform="translate(1.989 0.86)">
        <path id="Path_17" data-name="Path 17" d="M-1216.387,899.91s-8.649.925-12.635-2.018c-3.546-6.893-3.7-14.618,3.878-18.651-1.461,6.99,10.249,3.711,12.28,5.934C-1207.509,888.36-1216.387,899.91-1216.387,899.91Z" transform="translate(1238.622 -859.345)" fill="none" stroke="#457353" stroke-width="2"/>
        <g id="Path_16" data-name="Path 16" transform="translate(-37.509 0.548)" fill="none">
          <path d="M56.413-.547C69.277-.667,77.953,8.087,78.5,19.41S67.341,41.6,57.961,41.047c.908-2.339,7.935-10.941,5.7-14.2s-12.185-.117-13.572-4.538c-1.1-2.87.585-4.523,3.58-5.521s8.14.569,8.564-2.972S55.869.913,56.413-.547Z" stroke="none"/>
          <path d="M 59.27706146240234 1.587509155273438 C 59.63297271728516 2.281753540039062 60.03884124755859 3.036415100097656 60.38861846923828 3.686790466308594 C 62.81932830810547 8.206462860107422 64.51719665527344 11.59545135498047 64.22323608398438 14.05067253112793 C 64.00626373291016 15.86277198791504 62.91840362548828 17.20189094543457 61.16004943847656 17.82133102416992 C 59.93929290771484 18.25138282775879 58.55207824707031 18.30461120605469 57.21052551269531 18.35609245300293 C 56.14075469970703 18.39714241027832 55.03456878662109 18.4395923614502 54.30588531494141 18.68242263793945 C 52.51478576660156 19.2792911529541 51.99734497070312 19.89725112915039 51.84832000732422 20.21249198913574 C 51.69614410400391 20.53438186645508 51.73406982421875 20.99793243408203 51.96103668212891 21.59025192260742 L 51.98322296142578 21.64816284179688 L 52.00178527832031 21.70733261108398 C 52.05405426025391 21.87399101257324 52.17646789550781 22.2642822265625 53.31293487548828 22.5825309753418 C 54.40690612792969 22.88888168334961 55.92283630371094 22.9723014831543 57.38885498046875 23.05298233032227 C 60.50849914550781 23.22466278076172 63.73434448242188 23.40218162536621 65.31587219238281 25.71480178833008 C 65.73671722412109 26.33019256591797 67.01741027832031 28.20290184020996 64.97601318359375 32.81388092041016 C 64.08616638183594 34.82381820678711 62.79806518554688 36.90569305419922 61.69560241699219 38.64856719970703 C 62.74108123779297 38.37299346923828 63.81085205078125 37.96384811401367 64.87590026855469 37.42877197265625 C 67.01625061035156 36.35345077514648 69.08808898925781 34.79790115356445 70.867431640625 32.93028259277344 C 74.6693115234375 28.93974304199219 76.72366333007812 24.04721260070801 76.50372314453125 19.50718116760254 C 76.3809814453125 16.97350120544434 75.81640625 14.5712718963623 74.82566833496094 12.36723136901855 C 73.85042572021484 10.19766235351562 72.48964691162109 8.280300140380859 70.7811279296875 6.668422698974609 C 69.03874206542969 5.024581909179688 66.97967529296875 3.742340087890625 64.66114807128906 2.857322692871094 C 62.97457885742188 2.213535308837891 61.17170715332031 1.788825988769531 59.27706146240234 1.587509155273438 M 56.67387390136719 -0.54815673828125 C 69.39463806152344 -0.54815673828125 77.95655822753906 8.163856506347656 78.50138854980469 19.4104118347168 C 79.04994201660156 30.73367309570312 67.34048461914062 41.59808349609375 57.96102905273438 41.0468635559082 C 58.86876678466797 38.70811080932617 65.89582824707031 30.1058521270752 63.66499328613281 26.84378051757812 C 61.43415832519531 23.58171272277832 51.48016357421875 26.72721099853516 50.09344482421875 22.30587196350098 C 48.99384307861328 19.43617248535156 50.67816925048828 17.78320121765137 53.673583984375 16.78500175476074 C 56.66900634765625 15.78679275512695 61.81345367431641 17.35381126403809 62.23741912841797 13.81290245056152 C 62.661376953125 10.27199172973633 55.86872863769531 0.91290283203125 56.41290283203125 -0.5469398498535156 C 56.50006103515625 -0.5477523803710938 56.58710479736328 -0.54815673828125 56.67387390136719 -0.54815673828125 Z" stroke="none" fill="#1b5793"/>
        </g>
        <path id="Path_15" data-name="Path 15" d="M-1249.056,846.308a22.765,22.765,0,0,1-7.533-8.711,22.476,22.476,0,0,1-.634-15.507,22.083,22.083,0,0,1,8.789-10.886,18.018,18.018,0,0,1,9.264-2.475s5.152,6.8,6.536,12.772c.3,1.247-.676,5.125-7.991,4.4-3.732.029-7.855,3.651-9.135,5.582C-1253.859,837.663-1249.056,846.308-1249.056,846.308Z" transform="translate(1258.303 -807.937)" fill="none" stroke="#457353" stroke-width="2"/>
        <g id="Path_18" data-name="Path 18" transform="translate(11.29 8.661)" fill="none">
          <path d="M2.637,0A2.637,2.637,0,1,1,0,2.637,2.637,2.637,0,0,1,2.637,0Z" stroke="none"/>
          <path d="M 2.636670827865601 2.000000715255737 C 2.285610914230347 2.000000715255737 2.000000715255737 2.285610914230347 2.000000715255737 2.636670827865601 C 2.000000715255737 2.987730741500854 2.285610914230347 3.273340940475464 2.636670827865601 3.273340940475464 C 2.987730741500854 3.273340940475464 3.273340940475464 2.987730741500854 3.273340940475464 2.636670827865601 C 3.273340940475464 2.285610914230347 2.987730741500854 2.000000715255737 2.636670827865601 2.000000715255737 M 2.636670827865601 9.5367431640625e-07 C 4.092860698699951 9.5367431640625e-07 5.273340702056885 1.18048095703125 5.273340702056885 2.636670827865601 C 5.273340702056885 4.092860698699951 4.092860698699951 5.273340702056885 2.636670827865601 5.273340702056885 C 1.18048095703125 5.273340702056885 9.5367431640625e-07 4.092860698699951 9.5367431640625e-07 2.636670827865601 C 9.5367431640625e-07 1.18048095703125 1.18048095703125 9.5367431640625e-07 2.636670827865601 9.5367431640625e-07 Z" stroke="none" fill="#457353"/>
        </g>
      </g>
      <g id="Path_20" data-name="Path 20" fill="none">
        <path d="M21.5,0A21.5,21.5,0,1,1,0,21.5,21.5,21.5,0,0,1,21.5,0Z" stroke="none"/>
        <path d="M 21.50000381469727 3 C 16.55847358703613 3 11.9127140045166 4.924339294433594 8.418525695800781 8.418529510498047 C 4.924335479736328 11.9127197265625 2.999992370605469 16.55846977233887 2.999992370605469 21.5 C 2.999992370605469 26.44153022766113 4.924335479736328 31.08728981018066 8.418525695800781 34.58148193359375 C 11.9127140045166 38.07566070556641 16.55847358703613 40 21.50000381469727 40 C 26.4415340423584 40 31.08729362487793 38.07566833496094 34.58147430419922 34.58148193359375 C 38.07566452026367 31.08728981018066 40.00000381469727 26.44153022766113 40.00000381469727 21.5 C 40.00000381469727 16.55846977233887 38.07566452026367 11.91271018981934 34.58147430419922 8.418529510498047 C 31.08729362487793 4.924339294433594 26.4415340423584 3 21.50000381469727 3 M 21.50000381469727 0 C 33.37412261962891 0 43.00000381469727 9.625881195068359 43.00000381469727 21.5 C 43.00000381469727 33.37413024902344 33.37412261962891 43 21.50000381469727 43 C 9.625885009765625 43 -7.62939453125e-06 33.37413024902344 -7.62939453125e-06 21.5 C -7.62939453125e-06 9.625881195068359 9.625885009765625 0 21.50000381469727 0 Z" stroke="none" fill="#000"/>
      </g>
    </g>
  </g>
</svg>
